<mxfile host="app.diagrams.net" agent="Mozilla/5.0 (Windows NT 10.0; Win64; x64) AppleWebKit/537.36 (KHTML, like Gecko) Chrome/135.0.0.0 Safari/537.36 Edg/135.0.0.0" version="26.1.0">
  <diagram name="Page-1" id="cECqATDpeEiYrHjbhGbF">
    <mxGraphModel dx="1386" dy="751" grid="1" gridSize="10" guides="1" tooltips="1" connect="1" arrows="1" fold="1" page="1" pageScale="1" pageWidth="850" pageHeight="1100" math="0" shadow="0">
      <root>
        <mxCell id="0" />
        <mxCell id="1" parent="0" />
        <mxCell id="-P8zcUomVygc5tQ4geei-1" value="Splunk Server" style="sketch=0;outlineConnect=0;fontColor=#232F3E;gradientColor=none;fillColor=#232F3D;strokeColor=none;dashed=0;verticalLabelPosition=bottom;verticalAlign=top;align=center;html=1;fontSize=12;fontStyle=0;aspect=fixed;pointerEvents=1;shape=mxgraph.aws4.traditional_server;" parent="1" vertex="1">
          <mxGeometry x="170" y="132" width="45" height="78" as="geometry" />
        </mxCell>
        <mxCell id="-P8zcUomVygc5tQ4geei-18" style="rounded=0;orthogonalLoop=1;jettySize=auto;html=1;dashed=1;dashPattern=1 4;fillColor=#d5e8d4;strokeColor=#82b366;endArrow=none;startFill=0;" parent="1" source="-P8zcUomVygc5tQ4geei-2" target="-P8zcUomVygc5tQ4geei-1" edge="1">
          <mxGeometry relative="1" as="geometry" />
        </mxCell>
        <mxCell id="-P8zcUomVygc5tQ4geei-2" value="Active Directory&lt;div&gt;Splunk Universal Forwarder&amp;nbsp;&lt;/div&gt;&lt;div&gt;Sysmon&lt;/div&gt;" style="sketch=0;outlineConnect=0;fontColor=#232F3E;gradientColor=none;fillColor=#232F3D;strokeColor=none;dashed=0;verticalLabelPosition=bottom;verticalAlign=top;align=center;html=1;fontSize=12;fontStyle=0;aspect=fixed;pointerEvents=1;shape=mxgraph.aws4.traditional_server;" parent="1" vertex="1">
          <mxGeometry x="170" y="362" width="45" height="78" as="geometry" />
        </mxCell>
        <mxCell id="-P8zcUomVygc5tQ4geei-17" style="rounded=0;orthogonalLoop=1;jettySize=auto;html=1;dashed=1;dashPattern=1 4;endArrow=none;startFill=0;fillColor=#d5e8d4;strokeColor=#82b366;" parent="1" source="-P8zcUomVygc5tQ4geei-3" target="-P8zcUomVygc5tQ4geei-1" edge="1">
          <mxGeometry relative="1" as="geometry" />
        </mxCell>
        <mxCell id="-P8zcUomVygc5tQ4geei-3" value="Windows 10&lt;div&gt;&lt;div style=&quot;color: rgb(35, 47, 62);&quot;&gt;Splunk Universal Forwarder&amp;nbsp;&lt;/div&gt;&lt;div style=&quot;color: rgb(35, 47, 62);&quot;&gt;Sysmon&lt;/div&gt;&lt;div style=&quot;color: rgb(35, 47, 62);&quot;&gt;Atomic Red Team&lt;/div&gt;&lt;div&gt;&lt;br&gt;&lt;/div&gt;&lt;/div&gt;" style="verticalLabelPosition=bottom;html=1;verticalAlign=top;align=center;strokeColor=none;fillColor=#00BEF2;shape=mxgraph.azure.computer;pointerEvents=1;" parent="1" vertex="1">
          <mxGeometry x="425" y="440" width="50" height="45" as="geometry" />
        </mxCell>
        <mxCell id="-P8zcUomVygc5tQ4geei-4" value="Kali Linux&amp;nbsp;" style="verticalLabelPosition=bottom;html=1;verticalAlign=top;align=center;strokeColor=#b85450;fillColor=#f8cecc;shape=mxgraph.azure.computer;pointerEvents=1;" parent="1" vertex="1">
          <mxGeometry x="630" y="252" width="50" height="45" as="geometry" />
        </mxCell>
        <mxCell id="-P8zcUomVygc5tQ4geei-5" value="" style="sketch=0;points=[[0.015,0.015,0],[0.985,0.015,0],[0.985,0.985,0],[0.015,0.985,0],[0.25,0,0],[0.5,0,0],[0.75,0,0],[1,0.25,0],[1,0.5,0],[1,0.75,0],[0.75,1,0],[0.5,1,0],[0.25,1,0],[0,0.75,0],[0,0.5,0],[0,0.25,0]];verticalLabelPosition=bottom;html=1;verticalAlign=top;aspect=fixed;align=center;pointerEvents=1;shape=mxgraph.cisco19.rect;prIcon=l2_switch;fillColor=#FAFAFA;strokeColor=#005073;" parent="1" vertex="1">
          <mxGeometry x="425" y="250" width="50" height="50" as="geometry" />
        </mxCell>
        <mxCell id="-P8zcUomVygc5tQ4geei-16" style="edgeStyle=orthogonalEdgeStyle;rounded=0;orthogonalLoop=1;jettySize=auto;html=1;" parent="1" source="-P8zcUomVygc5tQ4geei-6" edge="1">
          <mxGeometry relative="1" as="geometry">
            <mxPoint x="450" y="110" as="targetPoint" />
          </mxGeometry>
        </mxCell>
        <mxCell id="-P8zcUomVygc5tQ4geei-6" value="" style="sketch=0;points=[[0.5,0,0],[1,0.5,0],[0.5,1,0],[0,0.5,0],[0.145,0.145,0],[0.8555,0.145,0],[0.855,0.8555,0],[0.145,0.855,0]];verticalLabelPosition=bottom;html=1;verticalAlign=top;aspect=fixed;align=center;pointerEvents=1;shape=mxgraph.cisco19.rect;prIcon=router;fillColor=#FAFAFA;strokeColor=#005073;" parent="1" vertex="1">
          <mxGeometry x="425" y="160" width="50" height="50" as="geometry" />
        </mxCell>
        <mxCell id="-P8zcUomVygc5tQ4geei-7" value="Internet" style="ellipse;shape=cloud;whiteSpace=wrap;html=1;" parent="1" vertex="1">
          <mxGeometry x="390" y="30" width="120" height="80" as="geometry" />
        </mxCell>
        <mxCell id="-P8zcUomVygc5tQ4geei-10" style="edgeStyle=orthogonalEdgeStyle;rounded=0;orthogonalLoop=1;jettySize=auto;html=1;entryX=0.5;entryY=1;entryDx=0;entryDy=0;entryPerimeter=0;" parent="1" source="-P8zcUomVygc5tQ4geei-3" target="-P8zcUomVygc5tQ4geei-5" edge="1">
          <mxGeometry relative="1" as="geometry" />
        </mxCell>
        <mxCell id="-P8zcUomVygc5tQ4geei-11" style="edgeStyle=orthogonalEdgeStyle;rounded=0;orthogonalLoop=1;jettySize=auto;html=1;entryX=0;entryY=0.5;entryDx=0;entryDy=0;entryPerimeter=0;" parent="1" source="-P8zcUomVygc5tQ4geei-1" target="-P8zcUomVygc5tQ4geei-5" edge="1">
          <mxGeometry relative="1" as="geometry" />
        </mxCell>
        <mxCell id="-P8zcUomVygc5tQ4geei-12" style="edgeStyle=orthogonalEdgeStyle;rounded=0;orthogonalLoop=1;jettySize=auto;html=1;entryX=0;entryY=0.5;entryDx=0;entryDy=0;entryPerimeter=0;" parent="1" source="-P8zcUomVygc5tQ4geei-2" target="-P8zcUomVygc5tQ4geei-5" edge="1">
          <mxGeometry relative="1" as="geometry" />
        </mxCell>
        <mxCell id="-P8zcUomVygc5tQ4geei-13" style="edgeStyle=orthogonalEdgeStyle;rounded=0;orthogonalLoop=1;jettySize=auto;html=1;entryX=1;entryY=0.5;entryDx=0;entryDy=0;entryPerimeter=0;" parent="1" source="-P8zcUomVygc5tQ4geei-4" target="-P8zcUomVygc5tQ4geei-5" edge="1">
          <mxGeometry relative="1" as="geometry" />
        </mxCell>
        <mxCell id="-P8zcUomVygc5tQ4geei-14" style="edgeStyle=orthogonalEdgeStyle;rounded=0;orthogonalLoop=1;jettySize=auto;html=1;entryX=0.5;entryY=1;entryDx=0;entryDy=0;entryPerimeter=0;" parent="1" source="-P8zcUomVygc5tQ4geei-5" target="-P8zcUomVygc5tQ4geei-6" edge="1">
          <mxGeometry relative="1" as="geometry" />
        </mxCell>
      </root>
    </mxGraphModel>
  </diagram>
</mxfile>
